<svg width="1200" height="460" viewBox="0 0 1200 460" fill="none" xmlns="http://www.w3.org/2000/svg">
  <defs>
    <linearGradient id="gradV" x1="0" y1="0" x2="1" y2="0">
      <stop offset="0%" stop-color="#21C1FF"/>
      <stop offset="35%" stop-color="#17B1FF"/>
      <stop offset="60%" stop-color="#6A5BFF"/>
      <stop offset="80%" stop-color="#B250FF"/>
      <stop offset="100%" stop-color="#FF6A6A"/>
    </linearGradient>
    <linearGradient id="gradBar1" x1="0" y1="0" x2="1" y2="0">
      <stop offset="0%" stop-color="#10B6FF"/>
      <stop offset="50%" stop-color="#3BA8FF"/>
      <stop offset="100%" stop-color="#27A1FF"/>
    </linearGradient>
    <linearGradient id="gradBar2" x1="0" y1="0" x2="1" y2="0">
      <stop offset="0%" stop-color="#00D1FF"/>
      <stop offset="55%" stop-color="#6A5BFF"/>
      <stop offset="100%" stop-color="#7C4DFF"/>
    </linearGradient>
    <linearGradient id="gradBar3" x1="0" y1="0" x2="1" y2="0">
      <stop offset="0%" stop-color="#FFC542"/>
      <stop offset="45%" stop-color="#FF7AC3"/>
      <stop offset="100%" stop-color="#FF4D6D"/>
    </linearGradient>
    <filter id="soften" x="-20%" y="-20%" width="140%" height="140%" filterUnits="objectBoundingBox">
      <feGaussianBlur in="SourceGraphic" stdDeviation="0.25" result="blur"/>
      <feBlend in="SourceGraphic" in2="blur" mode="normal"/>
    </filter>
  </defs>

  <!-- Stylized V (left swoop + right stem) -->
  <path d="M105.7 84C161 200 226 312 302 352c62 33 129 29 178 16l-66.5 0C365 368 313 335 270 278L141 84c-11-16-22-24-35-24-23 0-41 18-41 39 0 8 3 16 8 25z"
        fill="url(#gradV)" filter="url(#soften)"/>
  <path d="M516 66c-22 0-40 18-40 40v262c0 22 18 40 40 40 22 0 40-18 40-40V106c0-22-18-40-40-40z"
        fill="url(#gradV)"/>

  <!-- Bars (rounded rectangles) -->
  <rect x="530" y="188" width="90" height="210" rx="45" fill="url(#gradBar1)"/>
  <rect x="650" y="132" width="110" height="266" rx="55" fill="url(#gradBar2)"/>
  <path d="M810 40c-33 0-60 27-60 60v280c0 33 27 60 60 60 33 0 60-27 60-60V100c0-33-27-60-60-60z"
        fill="url(#gradBar3)"/>

  <!-- Optional wordmark guide (hidden by default) -->
  <g id="wordmark" visibility="hidden">
    <text x="930" y="320" font-family="Inter, Segoe UI, Arial, sans-serif" font-size="220" fill="#15253A" font-weight="700">VoxaGraph</text>
  </g>
</svg>